<svg xmlns="http://www.w3.org/2000/svg" width="1080" height="1350" viewBox="0 0 1080 1350">
  <!-- ===== P3 : 체크리스트 — tips (방문 준비물·꿀팁, CTA 직전) ===== -->
  <defs>
    <linearGradient id="scrimFull" x1="0" y1="0" x2="0" y2="1">
      <stop offset="0" stop-color="#000000" stop-opacity="0.48"/>
      <stop offset="1" stop-color="#000000" stop-opacity="0.66"/>
    </linearGradient>
  </defs>

  <!-- ▼▼▼ Figma/Phase B: 이 사각형 1개만 배경 이미지로 치환 ▼▼▼ -->
  <rect id="BG__REPLACE_WITH_IMAGE" x="0" y="0" width="1080" height="1350" fill="#16201e"/>
  <!-- ▲▲▲ 배경 슬롯 ▲▲▲ -->

  <rect x="0" y="0" width="1080" height="1350" fill="url(#scrimFull)"/>
  <rect id="brand-bar" x="0" y="0" width="14" height="1350" fill="#00796b"/>

  <text x="80" y="270" font-family="Pretendard, 'Apple SD Gothic Neo', sans-serif" font-size="60" font-weight="800" fill="#ffffff">이것만 알면 실패 없음</text>
  <rect x="82" y="304" width="140" height="9" fill="#00796b"/>

  <g font-family="Pretendard, 'Apple SD Gothic Neo', sans-serif">
    <rect x="80" y="430" width="34" height="8" fill="#80cbc4"/>
    <text x="80" y="500" font-size="42" font-weight="600" fill="#ffffff">절정 타이밍: 5.28~6.3 최적</text>
    <line x1="80" y1="560" x2="1000" y2="560" stroke="#ffffff" stroke-opacity="0.12" stroke-width="2"/>

    <rect x="80" y="610" width="34" height="8" fill="#80cbc4"/>
    <text x="80" y="680" font-size="42" font-weight="600" fill="#ffffff">이른 아침 9~10시, 이슬+부드러운 빛</text>
    <line x1="80" y1="740" x2="1000" y2="740" stroke="#ffffff" stroke-opacity="0.12" stroke-width="2"/>

    <rect x="80" y="790" width="34" height="8" fill="#80cbc4"/>
    <text x="80" y="860" font-size="42" font-weight="600" fill="#ffffff">야간 촬영: 스마트폰 프로모드 ISO 낮게</text>
    <line x1="80" y1="920" x2="1000" y2="920" stroke="#ffffff" stroke-opacity="0.12" stroke-width="2"/>

    <rect x="80" y="970" width="34" height="8" fill="#80cbc4"/>
    <text x="80" y="1040" font-size="42" font-weight="600" fill="#ffffff">오후엔 역광으로 꽃잎 빛나는 사진</text>
  </g>

  <text x="80" y="1150" font-family="Pretendard, 'Apple SD Gothic Neo', sans-serif" font-size="40" font-weight="800" fill="#80cbc4">저장해두고 방문 전 꺼내보세요  ↓</text>
  <text x="80" y="1240" font-family="Pretendard, 'Apple SD Gothic Neo', sans-serif" font-size="30" font-weight="500" fill="#b2dfdb">전체 가이드는 프로필 블로그에서.</text>
</svg>
