<svg xmlns="http://www.w3.org/2000/svg" width="1080" height="1350" viewBox="0 0 1080 1350">
  <!-- ===== card_07 : tips — P3 체크리스트 : 울릉도 출발 전 필수 체크 ===== -->
  <defs>
    <linearGradient id="scrimFull" x1="0" y1="0" x2="0" y2="1">
      <stop offset="0" stop-color="#000000" stop-opacity="0.48"/>
      <stop offset="1" stop-color="#000000" stop-opacity="0.66"/>
    </linearGradient>
  </defs>

  <!-- ▼▼▼ Figma/Phase B: 이 사각형 1개만 배경 이미지로 치환 ▼▼▼ -->
  <rect id="BG__REPLACE_WITH_IMAGE" x="0" y="0" width="1080" height="1350" fill="#16201e"/>
  <!-- ▲▲▲ 배경 슬롯 ▲▲▲ -->

  <rect x="0" y="0" width="1080" height="1350" fill="url(#scrimFull)"/>
  <rect id="brand-bar" x="0" y="0" width="14" height="1350" fill="#00796b"/>

  <text x="80" y="270" font-family="Pretendard, 'Apple SD Gothic Neo', sans-serif" font-size="58" font-weight="800" fill="#ffffff">출발 전 이것만 체크</text>
  <rect x="82" y="304" width="140" height="9" fill="#00796b"/>

  <g font-family="Pretendard, 'Apple SD Gothic Neo', sans-serif">
    <rect x="80" y="430" width="34" height="8" fill="#80cbc4"/>
    <text x="80" y="500" font-size="42" font-weight="600" fill="#ffffff">기상청 동해안 예보 + 선사 운항 공지 확인</text>
    <line x1="80" y1="560" x2="1000" y2="560" stroke="#ffffff" stroke-opacity="0.12" stroke-width="2"/>

    <rect x="80" y="610" width="34" height="8" fill="#80cbc4"/>
    <text x="80" y="680" font-size="42" font-weight="600" fill="#ffffff">방수 재킷 · 등산화 · 멀미약 · 상비약</text>
    <line x1="80" y1="740" x2="1000" y2="740" stroke="#ffffff" stroke-opacity="0.12" stroke-width="2"/>

    <rect x="80" y="790" width="34" height="8" fill="#80cbc4"/>
    <text x="80" y="860" font-size="42" font-weight="600" fill="#ffffff">현금 충분히 + 도동 ATM 위치 파악</text>
    <line x1="80" y1="920" x2="1000" y2="920" stroke="#ffffff" stroke-opacity="0.12" stroke-width="2"/>

    <rect x="80" y="970" width="34" height="8" fill="#80cbc4"/>
    <text x="80" y="1040" font-size="42" font-weight="600" fill="#ffffff">배표 · 독도 관광선 출발 전 예약 완료</text>
  </g>

  <text x="80" y="1150" font-family="Pretendard, 'Apple SD Gothic Neo', sans-serif" font-size="40" font-weight="800" fill="#80cbc4">저장해두고 떠나기 전 꼭 확인하세요  ↓</text>
  <text x="80" y="1240" font-family="Pretendard, 'Apple SD Gothic Neo', sans-serif" font-size="30" font-weight="500" fill="#b2dfdb">전체 가이드는 프로필 블로그에서.</text>

  <!-- ===== 브랜드 워터마크 (우측 하단 고정 · 문서상 마지막 = 항상 최상단) ===== -->
  <g id="brand-watermark">
    <path d="M822 1251 H1080 V1350 H792 V1281 A30 30 0 0 1 822 1251 Z" fill="#004d40"/>
    <text x="936" y="1310" text-anchor="middle" font-family="Pretendard, 'Apple SD Gothic Neo', sans-serif" font-size="27" font-weight="700" fill="#ffffff" letter-spacing="0.5">travelkorea_365</text>
  </g>
</svg>
