<svg xmlns="http://www.w3.org/2000/svg" width="1080" height="1350" viewBox="0 0 1080 1350">
  <!-- ===== P4 : 핵심 팩트 (사진중심 · 스크림 워시 · 대형 숫자타일 없음) ===== -->
  <defs>
    <linearGradient id="scrimFull" x1="0" y1="0" x2="0" y2="1">
      <stop offset="0" stop-color="#000000" stop-opacity="0.48"/>
      <stop offset="1" stop-color="#000000" stop-opacity="0.64"/>
    </linearGradient>
  </defs>

  <!-- ▼▼▼ Figma/Phase B: 이 사각형 1개만 배경 이미지로 치환 ▼▼▼ -->
  <rect id="BG__REPLACE_WITH_IMAGE" x="0" y="0" width="1080" height="1350" fill="#0d1a0f"/>
  <!-- ▲▲▲ 배경 슬롯 ▲▲▲ -->

  <rect x="0" y="0" width="1080" height="1350" fill="url(#scrimFull)"/>
  <rect id="brand-bar" x="0" y="0" width="14" height="1350" fill="#388e3c"/>

  <text x="80" y="270" font-family="Pretendard, 'Apple SD Gothic Neo', sans-serif" font-size="62" font-weight="800" fill="#ffffff">탐방 예약 핵심 정보</text>
  <rect x="82" y="304" width="140" height="9" fill="#388e3c"/>

  <g font-family="Pretendard, 'Apple SD Gothic Neo', sans-serif">
    <text x="80" y="450" font-size="30" font-weight="600" fill="#a5d6a7">예약 필수 구역</text>
    <text x="80" y="512" font-size="52" font-weight="800" fill="#ffffff">우이령 탐방로 (약 6.8km)</text>
    <line x1="80" y1="566" x2="1000" y2="566" stroke="#ffffff" stroke-opacity="0.12" stroke-width="2"/>

    <text x="80" y="650" font-size="30" font-weight="600" fill="#a5d6a7">예약 시스템</text>
    <text x="80" y="712" font-size="52" font-weight="800" fill="#ffffff">reservation.knps.or.kr</text>
    <line x1="80" y1="766" x2="1000" y2="766" stroke="#ffffff" stroke-opacity="0.12" stroke-width="2"/>

    <text x="80" y="850" font-size="30" font-weight="600" fill="#a5d6a7">단풍 시즌 예약 적용</text>
    <text x="80" y="912" font-size="52" font-weight="800" fill="#ffffff">9월~11월 주중·주말 전일</text>
    <line x1="80" y1="966" x2="1000" y2="966" stroke="#ffffff" stroke-opacity="0.12" stroke-width="2"/>

    <text x="80" y="1050" font-size="30" font-weight="600" fill="#a5d6a7">문의 전화</text>
    <text x="80" y="1112" font-size="52" font-weight="800" fill="#ffffff">02-909-0497</text>
  </g>

  <text x="80" y="1240" font-family="Pretendard, 'Apple SD Gothic Neo', sans-serif" font-size="30" font-weight="500" fill="#a5d6a7">1~8월·12월은 주말·공휴일만 예약제 운영.</text>

  <!-- ===== 브랜드 워터마크 (우측 하단 고정 · 문서상 마지막 = 항상 최상단) ===== -->
  <g id="brand-watermark">
    <path d="M822 1251 H1080 V1350 H792 V1281 A30 30 0 0 1 822 1251 Z" fill="#1b5e20"/>
    <text x="936" y="1310" text-anchor="middle" font-family="Pretendard, 'Apple SD Gothic Neo', sans-serif" font-size="27" font-weight="700" fill="#ffffff" letter-spacing="0.5">travelkorea_365</text>
  </g>
</svg>
