<svg xmlns="http://www.w3.org/2000/svg" width="1080" height="1350" viewBox="0 0 1080 1350">
  <!-- ===== P1 : 정보 표 — info 카드 (ESTA 핵심 정보 한눈에) =====
       admin 팔레트 #1a237e/#283593/#e8eaf6 / seed:2368 / info-table 7행 중 5행 핵심 선택 -->
  <defs>
    <linearGradient id="scrimFull" x1="0" y1="0" x2="0" y2="1">
      <stop offset="0" stop-color="#000000" stop-opacity="0.50"/>
      <stop offset="1" stop-color="#000000" stop-opacity="0.66"/>
    </linearGradient>
  </defs>

  <!-- ▼▼▼ Figma/Phase B: 이 사각형 1개만 배경 이미지로 치환 ▼▼▼ -->
  <rect id="BG__REPLACE_WITH_IMAGE" x="0" y="0" width="1080" height="1350" fill="#0d1224"/>
  <!-- ▲▲▲ 배경 슬롯 ▲▲▲ -->

  <rect x="0" y="0" width="1080" height="1350" fill="url(#scrimFull)"/>
  <rect id="brand-bar" x="0" y="0" width="14" height="1350" fill="#283593"/>

  <text x="80" y="270" font-family="Pretendard, 'Apple SD Gothic Neo', sans-serif" font-size="62" font-weight="800" fill="#ffffff">ESTA 핵심 정보</text>
  <rect x="82" y="304" width="140" height="9" fill="#283593"/>

  <g font-family="Pretendard, 'Apple SD Gothic Neo', sans-serif">
    <text x="80" y="450" font-size="42" font-weight="600" fill="#ffffff">신청 비용</text>
    <text x="1000" y="450" font-size="42" font-weight="800" fill="#7986cb" text-anchor="end">미화 40달러</text>
    <line x1="80" y1="492" x2="1000" y2="492" stroke="#ffffff" stroke-opacity="0.14" stroke-width="2"/>

    <text x="80" y="582" font-size="42" font-weight="600" fill="#ffffff">유효기간</text>
    <text x="1000" y="582" font-size="42" font-weight="800" fill="#7986cb" text-anchor="end">승인 후 2년</text>
    <line x1="80" y1="624" x2="1000" y2="624" stroke="#ffffff" stroke-opacity="0.14" stroke-width="2"/>

    <text x="80" y="714" font-size="42" font-weight="600" fill="#ffffff">1회 체류</text>
    <text x="1000" y="714" font-size="42" font-weight="800" fill="#7986cb" text-anchor="end">최대 90일</text>
    <line x1="80" y1="756" x2="1000" y2="756" stroke="#ffffff" stroke-opacity="0.14" stroke-width="2"/>

    <text x="80" y="846" font-size="42" font-weight="600" fill="#ffffff">처리 시간</text>
    <text x="1000" y="846" font-size="42" font-weight="800" fill="#7986cb" text-anchor="end">수 분~72시간</text>
    <line x1="80" y1="888" x2="1000" y2="888" stroke="#ffffff" stroke-opacity="0.14" stroke-width="2"/>

    <text x="80" y="978" font-size="42" font-weight="600" fill="#ffffff">신청 권장 시점</text>
    <text x="1000" y="978" font-size="42" font-weight="800" fill="#7986cb" text-anchor="end">탑승 72시간 전</text>
  </g>

  <text x="80" y="1110" font-family="Pretendard, 'Apple SD Gothic Neo', sans-serif" font-size="30" font-weight="500" fill="#9fa8da">2025년 9월 30일~ 적용 요금 · 출처: esta.cbp.dhs.gov</text>

  <!-- ===== 브랜드 워터마크 (우측 하단 고정 · 문서상 마지막 = 항상 최상단) ===== -->
  <g id="brand-watermark">
    <path d="M822 1251 H1080 V1350 H792 V1281 A30 30 0 0 1 822 1251 Z" fill="#1a237e"/>
    <text x="936" y="1310" text-anchor="middle" font-family="Pretendard, 'Apple SD Gothic Neo', sans-serif" font-size="27" font-weight="700" fill="#ffffff" letter-spacing="0.5">travelkorea_365</text>
  </g>
</svg>
