<svg xmlns="http://www.w3.org/2000/svg" width="1080" height="1350" viewBox="0 0 1080 1350">
  <!-- ===== P2 : 코스 단계 — course : 풍력단지 드라이브 추천 코스 =====
       순차 단계를 텍스트 행으로. 원고 h2-05 풍력단지 드라이브 코스 안내 -->
  <defs>
    <linearGradient id="scrimFull" x1="0" y1="0" x2="0" y2="1">
      <stop offset="0" stop-color="#000000" stop-opacity="0.50"/>
      <stop offset="1" stop-color="#000000" stop-opacity="0.66"/>
    </linearGradient>
  </defs>

  <!-- ▼▼▼ Figma/Phase B: 이 사각형 1개만 배경 이미지로 치환 ▼▼▼ -->
  <rect id="BG__REPLACE_WITH_IMAGE" x="0" y="0" width="1080" height="1350" fill="#16201e"/>
  <!-- ▲▲▲ 배경 슬롯 ▲▲▲ -->

  <rect x="0" y="0" width="1080" height="1350" fill="url(#scrimFull)"/>
  <rect id="brand-bar" x="0" y="0" width="14" height="1350" fill="#00796b"/>

  <text x="80" y="270" font-family="Pretendard, 'Apple SD Gothic Neo', sans-serif" font-size="62" font-weight="800" fill="#ffffff">풍력단지 드라이브 코스</text>
  <rect x="82" y="304" width="140" height="9" fill="#00796b"/>

  <g font-family="Pretendard, 'Apple SD Gothic Neo', sans-serif">
    <text x="80" y="442" font-size="42" font-weight="700" fill="#ffffff">미탄면 창리 임도 진입</text>
    <text x="80" y="488" font-size="28" font-weight="500" fill="#b2dfdb">비포장 임도 약 6~7km 구간</text>
    <line x1="80" y1="540" x2="1000" y2="540" stroke="#ffffff" stroke-opacity="0.12" stroke-width="2"/>

    <text x="80" y="612" font-size="42" font-weight="700" fill="#ffffff">고원 주차공간 (육백마지기 본지)</text>
    <text x="80" y="658" font-size="28" font-weight="500" fill="#b2dfdb">데이지 초원 · 고랭지 채소밭 감상</text>
    <line x1="80" y1="710" x2="1000" y2="710" stroke="#ffffff" stroke-opacity="0.12" stroke-width="2"/>

    <text x="80" y="782" font-size="42" font-weight="700" fill="#ffffff">능선 따라 풍력단지 이동</text>
    <text x="80" y="828" font-size="28" font-weight="500" fill="#b2dfdb">30기 이상 터빈(높이 80~100m)</text>
    <line x1="80" y1="880" x2="1000" y2="880" stroke="#ffffff" stroke-opacity="0.12" stroke-width="2"/>

    <text x="80" y="952" font-size="42" font-weight="700" fill="#ffffff">전망 포인트 조망 후 하산</text>
    <text x="80" y="998" font-size="28" font-weight="500" fill="#b2dfdb">정선·평창 파노라마 뷰 감상</text>
  </g>

  <text x="80" y="1240" font-family="Pretendard, 'Apple SD Gothic Neo', sans-serif" font-size="30" font-weight="500" fill="#b2dfdb">임도는 차량 1대 통과 가능 — 저속 운행 필수.</text>

  <!-- ===== 브랜드 워터마크 (우측 하단 고정 · 문서상 마지막 = 항상 최상단) ===== -->
  <g id="brand-watermark">
    <path d="M822 1251 H1080 V1350 H792 V1281 A30 30 0 0 1 822 1251 Z" fill="#004d40"/>
    <text x="936" y="1310" text-anchor="middle" font-family="Pretendard, 'Apple SD Gothic Neo', sans-serif" font-size="27" font-weight="700" fill="#ffffff" letter-spacing="0.5">travelkorea_365</text>
  </g>
</svg>
