<svg xmlns="http://www.w3.org/2000/svg" width="1080" height="1350" viewBox="0 0 1080 1350">
  <!-- ===== card_05 : info (P1 — 정보 표) — 달마고도 방문 정보 =====
       슬러그: travel_haenam_dalmago_duryunsan_june | seed: 3812
       원고 info-table 6행: 위치/총길이/소요시간/입장료/주차/문의 -->
  <defs>
    <linearGradient id="scrimFull" x1="0" y1="0" x2="0" y2="1">
      <stop offset="0" stop-color="#000000" stop-opacity="0.50"/>
      <stop offset="1" stop-color="#000000" stop-opacity="0.66"/>
    </linearGradient>
  </defs>

  <!-- ▼▼▼ Figma/Phase B: 이 사각형 1개만 배경 이미지로 치환 ▼▼▼ -->
  <rect id="BG__REPLACE_WITH_IMAGE" x="0" y="0" width="1080" height="1350" fill="#16201e"/>
  <!-- ▲▲▲ 배경 슬롯 ▲▲▲ -->

  <rect x="0" y="0" width="1080" height="1350" fill="url(#scrimFull)"/>
  <rect id="brand-bar" x="0" y="0" width="14" height="1350" fill="#00796b"/>

  <text x="80" y="230" font-family="Pretendard, 'Apple SD Gothic Neo', sans-serif" font-size="58" font-weight="800" fill="#ffffff">달마고도 방문 정보</text>
  <rect x="82" y="264" width="140" height="9" fill="#00796b"/>

  <g font-family="Pretendard, 'Apple SD Gothic Neo', sans-serif">
    <text x="80" y="400" font-size="38" font-weight="600" fill="#ffffff">위치</text>
    <text x="1000" y="400" font-size="36" font-weight="800" fill="#80cbc4" text-anchor="end">전남 해남군 송지면 미황사</text>
    <line x1="80" y1="432" x2="1000" y2="432" stroke="#ffffff" stroke-opacity="0.14" stroke-width="2"/>

    <text x="80" y="510" font-size="38" font-weight="600" fill="#ffffff">총 길이</text>
    <text x="1000" y="510" font-size="38" font-weight="800" fill="#80cbc4" text-anchor="end">17.74km (4개 코스)</text>
    <line x1="80" y1="542" x2="1000" y2="542" stroke="#ffffff" stroke-opacity="0.14" stroke-width="2"/>

    <text x="80" y="620" font-size="38" font-weight="600" fill="#ffffff">소요 시간</text>
    <text x="1000" y="620" font-size="38" font-weight="800" fill="#80cbc4" text-anchor="end">완주 약 6~7시간</text>
    <line x1="80" y1="652" x2="1000" y2="652" stroke="#ffffff" stroke-opacity="0.14" stroke-width="2"/>

    <text x="80" y="730" font-size="38" font-weight="600" fill="#ffffff">입장료</text>
    <text x="1000" y="730" font-size="38" font-weight="800" fill="#80cbc4" text-anchor="end">무료</text>
    <line x1="80" y1="762" x2="1000" y2="762" stroke="#ffffff" stroke-opacity="0.14" stroke-width="2"/>

    <text x="80" y="840" font-size="38" font-weight="600" fill="#ffffff">주차</text>
    <text x="1000" y="840" font-size="38" font-weight="800" fill="#80cbc4" text-anchor="end">미황사 주차장 무료</text>
    <line x1="80" y1="872" x2="1000" y2="872" stroke="#ffffff" stroke-opacity="0.14" stroke-width="2"/>

    <text x="80" y="950" font-size="38" font-weight="600" fill="#ffffff">문의</text>
    <text x="1000" y="950" font-size="38" font-weight="800" fill="#80cbc4" text-anchor="end">해남군청 061-530-5221</text>
  </g>

  <text x="80" y="1080" font-family="Pretendard, 'Apple SD Gothic Neo', sans-serif" font-size="30" font-weight="500" fill="#b2dfdb">기점·종점 동일(미황사) · 분할 탐방 가능(1~2코스 / 3~4코스).</text>

  <!-- ===== 브랜드 워터마크 (우측 하단 고정 · 문서상 마지막 = 항상 최상단) ===== -->
  <g id="brand-watermark">
    <path d="M822 1251 H1080 V1350 H792 V1281 A30 30 0 0 1 822 1251 Z" fill="#004d40"/>
    <text x="936" y="1310" text-anchor="middle" font-family="Pretendard, 'Apple SD Gothic Neo', sans-serif" font-size="27" font-weight="700" fill="#ffffff" letter-spacing="0.5">travelkorea_365</text>
  </g>
</svg>
