<svg xmlns="http://www.w3.org/2000/svg" width="1080" height="1350" viewBox="0 0 1080 1350">
  <!-- ===== F : 텍스트 리스트 (신청 전 3가지 체크 · 생활·정보 팔레트) ===== -->
  <defs>
    <linearGradient id="scrimFull" x1="0" y1="0" x2="0" y2="1">
      <stop offset="0" stop-color="#000000" stop-opacity="0.42"/>
      <stop offset="1" stop-color="#000000" stop-opacity="0.64"/>
    </linearGradient>
  </defs>

  <!-- ▼▼▼ Figma/Phase B: 이 사각형 1개만 배경 이미지로 치환 ▼▼▼ -->
  <rect id="BG__REPLACE_WITH_IMAGE" x="0" y="0" width="1080" height="1350" fill="#0d1a0f"/>
  <!-- ▲▲▲ 배경 슬롯 ▲▲▲ -->

  <rect x="0" y="0" width="1080" height="1350" fill="url(#scrimFull)"/>
  <rect id="brand-bar" x="0" y="0" width="14" height="1350" fill="#388e3c"/>

  <text x="80" y="250" font-family="Pretendard, 'Apple SD Gothic Neo', sans-serif" font-size="62" font-weight="800" fill="#ffffff">신청 전 최종 체크</text>
  <rect x="82" y="284" width="140" height="9" fill="#388e3c"/>

  <g font-family="Pretendard, 'Apple SD Gothic Neo', sans-serif">
    <rect x="80" y="452" width="34" height="8" fill="#a5d6a7"/>
    <text x="80" y="520" font-size="46" font-weight="700" fill="#ffffff">사진 규격 준수</text>
    <text x="80" y="574" font-size="30" font-weight="500" fill="#a5d6a7">6개월 이내 / 3.5×4.5cm / 흰 배경 / 무안경 정면</text>
    <line x1="80" y1="636" x2="1000" y2="636" stroke="#ffffff" stroke-opacity="0.12" stroke-width="2"/>

    <rect x="80" y="700" width="34" height="8" fill="#a5d6a7"/>
    <text x="80" y="768" font-size="46" font-weight="700" fill="#ffffff">서류 완비 후 방문</text>
    <text x="80" y="822" font-size="30" font-weight="500" fill="#a5d6a7">신청서·신분증·기존 여권·사진·수수료 한 번에</text>
    <line x1="80" y1="884" x2="1000" y2="884" stroke="#ffffff" stroke-opacity="0.12" stroke-width="2"/>

    <rect x="80" y="948" width="34" height="8" fill="#a5d6a7"/>
    <text x="80" y="1016" font-size="46" font-weight="700" fill="#ffffff">업무 시간 사전 확인</text>
    <text x="80" y="1070" font-size="30" font-weight="500" fill="#a5d6a7">평일 09:00~18:00 기준, 기관마다 상이</text>
  </g>

  <text x="80" y="1180" font-family="Pretendard, 'Apple SD Gothic Neo', sans-serif" font-size="38" font-weight="800" fill="#a5d6a7">저장해두고 방문 전 다시 확인하세요  ↓</text>
  <text x="80" y="1258" font-family="Pretendard, 'Apple SD Gothic Neo', sans-serif" font-size="30" font-weight="500" fill="#c8e6c9">전체 절차 가이드는 프로필 블로그에서.</text>

  <!-- ===== 브랜드 워터마크 (우측 하단 고정 · 문서상 마지막 = 항상 최상단) ===== -->
  <g id="brand-watermark">
    <path d="M822 1251 H1080 V1350 H792 V1281 A30 30 0 0 1 822 1251 Z" fill="#1b5e20"/>
    <text x="936" y="1310" text-anchor="middle" font-family="Pretendard, 'Apple SD Gothic Neo', sans-serif" font-size="27" font-weight="700" fill="#ffffff" letter-spacing="0.5">travelkorea_365</text>
  </g>
</svg>
