<svg xmlns="http://www.w3.org/2000/svg" width="1080" height="1350" viewBox="0 0 1080 1350">
  <!-- ===== F : 텍스트 리스트 (사진중심 · 전면 스크림 · 숫자 없음) =====
       역할: point / 잔액 조회 3가지 채널 / gov_munhwa_nuri_card card_05 -->
  <defs>
    <linearGradient id="scrimFull" x1="0" y1="0" x2="0" y2="1">
      <stop offset="0" stop-color="#000000" stop-opacity="0.42"/>
      <stop offset="1" stop-color="#000000" stop-opacity="0.64"/>
    </linearGradient>
  </defs>

  <!-- ▼▼▼ Figma/Phase B: 이 사각형 1개만 배경 이미지로 치환 ▼▼▼ -->
  <rect id="BG__REPLACE_WITH_IMAGE" x="0" y="0" width="1080" height="1350" fill="#16201e"/>
  <!-- ▲▲▲ 배경 슬롯 ▲▲▲ -->

  <rect x="0" y="0" width="1080" height="1350" fill="url(#scrimFull)"/>
  <rect id="brand-bar" x="0" y="0" width="14" height="1350" fill="#00796b"/>

  <text x="80" y="250" font-family="Pretendard, 'Apple SD Gothic Neo', sans-serif" font-size="62" font-weight="800" fill="#ffffff">잔액 조회하는 법</text>
  <rect x="82" y="284" width="140" height="9" fill="#00796b"/>

  <g font-family="Pretendard, 'Apple SD Gothic Neo', sans-serif">
    <rect x="80" y="452" width="34" height="8" fill="#80cbc4"/>
    <text x="80" y="522" font-size="46" font-weight="700" fill="#ffffff">공식 홈페이지</text>
    <text x="80" y="576" font-size="30" font-weight="500" fill="#b2dfdb">www.mnuri.kr → 카드 잔액 조회 메뉴에서 실시간 확인</text>
    <line x1="80" y1="636" x2="1000" y2="636" stroke="#ffffff" stroke-opacity="0.12" stroke-width="2"/>

    <rect x="80" y="700" width="34" height="8" fill="#80cbc4"/>
    <text x="80" y="770" font-size="46" font-weight="700" fill="#ffffff">문화누리 모바일 앱</text>
    <text x="80" y="824" font-size="30" font-weight="500" fill="#b2dfdb">잔액 조회 + 주변 가맹점 지도 검색 동시에</text>
    <line x1="80" y1="884" x2="1000" y2="884" stroke="#ffffff" stroke-opacity="0.12" stroke-width="2"/>

    <rect x="80" y="948" width="34" height="8" fill="#80cbc4"/>
    <text x="80" y="1018" font-size="46" font-weight="700" fill="#ffffff">고객센터 전화</text>
    <text x="80" y="1072" font-size="30" font-weight="500" fill="#b2dfdb">1544-3412 · ARS 또는 상담원 안내</text>
  </g>

  <text x="80" y="1220" font-family="Pretendard, 'Apple SD Gothic Neo', sans-serif" font-size="30" font-weight="500" fill="#cfd8d6">잔액은 2026년 12월 31일 이후 소멸 — 연말 전 꼭 확인.</text>

  <!-- ===== 브랜드 워터마크 (우측 하단 고정 · 문서상 마지막 = 항상 최상단) ===== -->
  <g id="brand-watermark">
    <path d="M822 1251 H1080 V1350 H792 V1281 A30 30 0 0 1 822 1251 Z" fill="#004d40"/>
    <text x="936" y="1310" text-anchor="middle" font-family="Pretendard, 'Apple SD Gothic Neo', sans-serif" font-size="27" font-weight="700" fill="#ffffff" letter-spacing="0.5">travelkorea_365</text>
  </g>
</svg>
