<svg xmlns="http://www.w3.org/2000/svg" width="1080" height="1350" viewBox="0 0 1080 1350">
  <!-- ===== card_04 : point1 (F — 텍스트 3포인트 리스트) — 선재길 3구간 하이라이트 ===== -->
  <defs>
    <linearGradient id="scrimFull" x1="0" y1="0" x2="0" y2="1">
      <stop offset="0" stop-color="#000000" stop-opacity="0.42"/>
      <stop offset="1" stop-color="#000000" stop-opacity="0.64"/>
    </linearGradient>
  </defs>

  <!-- ▼▼▼ Figma/Phase B: 이 사각형 1개만 배경 이미지로 치환 ▼▼▼ -->
  <rect id="BG__REPLACE_WITH_IMAGE" x="0" y="0" width="1080" height="1350" fill="#16201e"/>
  <!-- ▲▲▲ 배경 슬롯 ▲▲▲ -->

  <rect x="0" y="0" width="1080" height="1350" fill="url(#scrimFull)"/>
  <rect id="brand-bar" x="0" y="0" width="14" height="1350" fill="#00796b"/>

  <text x="80" y="250" font-family="Pretendard, 'Apple SD Gothic Neo', sans-serif" font-size="62" font-weight="800" fill="#ffffff">9km 구간별 하이라이트</text>
  <rect x="82" y="284" width="140" height="9" fill="#00796b"/>

  <g font-family="Pretendard, 'Apple SD Gothic Neo', sans-serif">
    <rect x="80" y="452" width="34" height="8" fill="#80cbc4"/>
    <text x="80" y="520" font-size="46" font-weight="700" fill="#ffffff">월정사 → 동피골 (약 2km)</text>
    <text x="80" y="574" font-size="30" font-weight="500" fill="#b2dfdb">평탄한 초입, 오대천 계곡이 왼쪽으로 반짝임</text>
    <line x1="80" y1="636" x2="1000" y2="636" stroke="#ffffff" stroke-opacity="0.12" stroke-width="2"/>

    <rect x="80" y="700" width="34" height="8" fill="#80cbc4"/>
    <text x="80" y="768" font-size="46" font-weight="700" fill="#ffffff">동피골 → 개울가 쉼터 (약 3km)</text>
    <text x="80" y="822" font-size="30" font-weight="500" fill="#b2dfdb">이끼 낀 바위·계류 다리, 사진 포인트 집중</text>
    <line x1="80" y1="884" x2="1000" y2="884" stroke="#ffffff" stroke-opacity="0.12" stroke-width="2"/>

    <rect x="80" y="948" width="34" height="8" fill="#80cbc4"/>
    <text x="80" y="1016" font-size="46" font-weight="700" fill="#ffffff">쉼터 → 상원사 (약 4km)</text>
    <text x="80" y="1070" font-size="30" font-weight="500" fill="#b2dfdb">고도 상승, 수목 다채로워지고 계곡 더욱 힘차게</text>
  </g>

  <text x="80" y="1240" font-family="Pretendard, 'Apple SD Gothic Neo', sans-serif" font-size="30" font-weight="500" fill="#cfd8d6">6월 장마 전, 계곡 수량 풍부해 물소리 시원합니다.</text>

  <!-- ===== 브랜드 워터마크 (우측 하단 고정 · 문서상 마지막 = 항상 최상단) ===== -->
  <g id="brand-watermark">
    <path d="M822 1251 H1080 V1350 H792 V1281 A30 30 0 0 1 822 1251 Z" fill="#004d40"/>
    <text x="936" y="1310" text-anchor="middle" font-family="Pretendard, 'Apple SD Gothic Neo', sans-serif" font-size="27" font-weight="700" fill="#ffffff" letter-spacing="0.5">travelkorea_365</text>
  </g>
</svg>
